<svg width="40" height="40" viewBox="0 0 40 40" fill="none" xmlns="http://www.w3.org/2000/svg">
<path d="M20 40C16.0444 40 12.1776 38.827 8.8886 36.6294C5.59962 34.4318 3.03617 31.3082 1.52242 27.6537C0.00866566 23.9991 -0.387401 19.9778 0.384303 16.0982C1.15601 12.2186 3.06082 8.65492 5.85787 5.85787C8.65492 3.06082 12.2186 1.15601 16.0982 0.384303C19.9778 -0.387401 23.9991 0.00866566 27.6537 1.52242C31.3082 3.03617 34.4318 5.59962 36.6294 8.8886C38.827 12.1776 40 16.0444 40 20C40 25.3043 37.8929 30.3914 34.1421 34.1421C30.3914 37.8929 25.3043 40 20 40ZM20 2.85715C16.6095 2.85715 13.2951 3.86256 10.4759 5.74624C7.65682 7.62992 5.45958 10.3073 4.16207 13.4397C2.86457 16.5722 2.52509 20.019 3.18655 23.3444C3.84801 26.6698 5.48071 29.7244 7.87818 32.1218C10.2756 34.5193 13.3302 36.152 16.6556 36.8135C19.981 37.4749 23.4278 37.1354 26.5603 35.8379C29.6927 34.5404 32.3701 32.3432 34.2538 29.5241C36.1374 26.7049 37.1429 23.3905 37.1429 20C37.1429 15.4534 35.3367 11.0931 32.1218 7.87818C28.9069 4.66327 24.5466 2.85715 20 2.85715ZM18.0857 26.7857L30.9429 15.3571L29.0571 13.2143L17.1429 23.7571L11.0143 17.5571L8.98572 19.5857L16.1286 26.7286C16.2621 26.861 16.4204 26.9657 16.5944 27.0368C16.7685 27.1079 16.9549 27.1439 17.1429 27.1429C17.4901 27.1424 17.8253 27.0154 18.0857 26.7857Z" fill="#3498DB"/>
</svg>
