<svg width="29" height="27" viewBox="0 0 29 27" fill="none" xmlns="http://www.w3.org/2000/svg">
<path d="M28.6517 19.8275C28.6414 17.9095 28.6414 15.9915 28.5898 14.0736C28.5692 13.2487 28.5074 12.4134 28.3217 11.6091C28.0227 10.3099 27.3215 9.24777 25.9913 8.81468C24.5271 8.35066 23.2175 8.78374 22.0317 9.70148C21.9698 9.74272 21.9182 9.84584 21.9182 9.91802C21.9079 10.8254 21.9182 11.7225 21.9182 12.6197C22.3513 12.5372 22.7432 12.4237 23.135 12.3825C23.6609 12.3412 24.1559 12.4444 24.4549 12.9393C24.7539 13.4343 24.9499 13.9808 24.9499 14.5582C24.9705 16.7649 24.9705 18.9716 24.9499 21.1783C24.9395 22.1476 24.424 22.7972 23.5269 23.1169C23.4547 23.1478 23.3516 23.2509 23.3412 23.3231C23.3412 24.4161 23.3516 25.4988 23.3516 26.5919C23.3516 26.7775 23.4237 26.8496 23.63 26.86C25.5582 26.8806 27.4865 25.5504 28.1568 23.7149C28.6002 22.4569 28.662 21.137 28.6517 19.8275ZM24.7746 4.19509C25.7129 4.09197 26.6616 3.97854 27.5999 3.88574C27.7546 3.86512 27.8371 3.83418 27.8371 3.65888C27.8371 2.56586 27.8371 1.46252 27.8371 0.307617C26.3007 0.482914 24.8261 0.6479 23.3516 0.823197C21.6605 1.01912 20.0106 1.23566 18.3195 1.41096C18.2679 2.11215 18.2061 2.83396 18.1648 3.54546C18.1339 3.98885 18.1236 4.44256 18.0926 4.90659C19.031 4.80347 19.9384 4.71067 20.8355 4.61786C22.1451 4.48381 23.4547 4.33945 24.7746 4.19509ZM21.0211 15.4347C21.0624 13.5477 21.1139 11.671 21.1655 9.78397C21.1964 8.71156 21.2377 7.62885 21.2686 6.55644C21.2789 6.23678 21.2686 5.91712 21.2686 5.58715C21.1139 5.58715 21.0108 5.58715 20.8974 5.58715C20.0622 5.6284 19.2166 5.69027 18.3814 5.71089C18.0823 5.7212 18.0205 5.83463 18.0102 6.09242C17.9998 6.68018 17.9689 7.27825 17.9483 7.86601C17.8658 10.1964 17.773 12.5372 17.6905 14.8676C17.6802 15.1769 17.6905 15.4863 17.6905 15.8575C18.7629 15.8266 19.7837 15.7853 20.8046 15.7544C21.0315 15.7441 21.0211 15.5997 21.0211 15.4347ZM22.3307 23.0653C21.5264 22.9725 21.1139 22.1991 21.083 21.4464C21.0521 20.5286 21.0315 19.6109 21.0108 18.7035C21.0108 18.4663 20.949 18.3838 20.6912 18.3838C19.7941 18.4148 18.897 18.4354 17.9998 18.4354C17.7627 18.4354 17.7111 18.5385 17.7214 18.7447C17.7421 19.3222 17.7317 19.9099 17.7421 20.4874C17.773 21.3845 17.7421 22.2816 17.8761 23.1581C18.0514 24.2821 18.5979 25.272 19.5569 25.9319C20.4024 26.5094 21.4027 26.7362 22.4854 26.8703C22.4854 25.6329 22.4854 24.4367 22.4751 23.2406C22.506 23.189 22.4029 23.0756 22.3307 23.0653ZM5.22378 20.9824C5.2341 20.6214 5.08973 20.508 4.72883 20.4977C3.42957 20.4358 3.04804 20.0337 3.0171 18.7241C2.99648 17.7342 3.0171 16.7443 2.99648 15.7441C2.98617 15.3213 2.94492 14.8985 2.91399 14.4757H0.0267439C0.0267439 16.0122 -0.0454373 17.497 0.047367 18.9716C0.243287 21.9929 1.8519 23.6943 4.68758 24.0346C5.08973 24.0861 5.2341 23.9727 5.22378 23.5706C5.21347 22.7044 5.21347 21.8485 5.22378 20.9824ZM0.0164323 13.3312H2.9243C2.9243 12.465 2.91399 11.6401 2.9243 10.8254C2.95524 9.14465 3.42957 8.61876 5.08973 8.42284C5.12067 8.42284 5.1516 8.38159 5.21347 8.34035V5.58715C3.24396 5.3603 1.07853 6.75236 0.367026 8.67032C-0.200111 10.1964 0.098925 11.7638 0.0164323 13.3312ZM5.83217 26.9425H9.12157V2.29775C7.98729 2.42149 6.91489 2.53492 5.83217 2.64835V26.9425ZM11.9676 9.79428C11.9779 10.413 11.9779 11.0317 11.9779 11.6504C11.9779 12.0731 11.9779 12.4856 11.9779 12.8981H15.2879C15.2879 11.4751 15.3498 10.1243 15.2673 8.78374C15.1951 7.5876 14.6176 6.608 13.5865 5.93774C12.5244 5.25718 11.3386 5.15406 10.1218 5.25718C10.0084 5.26749 9.82275 5.44279 9.82275 5.55622C9.80213 6.4327 9.81244 7.30919 9.81244 8.20629C10.0702 8.21661 10.2558 8.22692 10.4311 8.23723C11.5448 8.27848 11.9469 8.69094 11.9676 9.79428ZM15.3188 14.0736C14.3599 14.0736 13.4627 14.0942 12.5656 14.0633C12.1532 14.053 12.0088 14.1973 12.0191 14.6201C12.0294 15.7956 11.9985 16.9815 11.9985 18.157C11.9985 19.6625 11.4211 20.4771 9.98774 20.6214C9.93618 20.6214 9.89493 20.673 9.85369 20.6936V23.7768C12.6894 23.9315 14.4939 22.426 15.0714 20.2399C15.6076 18.2085 15.1951 16.1462 15.3188 14.0736Z" fill="url(#paint0_linear_86_583)"/>
<defs>
<linearGradient id="paint0_linear_86_583" x1="1.77961" y1="13.6269" x2="28.8594" y2="13.6269" gradientUnits="userSpaceOnUse">
<stop offset="0.0343547" stop-color="#273580"/>
<stop offset="0.2149" stop-color="#46317C"/>
<stop offset="0.6071" stop-color="#942673"/>
<stop offset="0.8615" stop-color="#CA1E6D"/>
</linearGradient>
</defs>
</svg>
