<svg width="125" height="45" viewBox="0 0 125 45" fill="none" xmlns="http://www.w3.org/2000/svg">
<path d="M3.88941 26.7845C5.16374 26.5189 6.83615 26.3599 8.58916 26.3599C10.4741 26.3599 11.8285 26.5989 13.0239 27.2891C14.2187 27.8992 15.0949 29.0681 15.0949 30.5815C15.0949 32.8386 13.449 34.2454 11.484 34.8036V34.8831C13.2099 35.4137 14.2987 36.8217 14.2987 38.7867C14.2987 40.7252 13.2635 42.1056 11.8561 43.0353C10.3427 44.0706 8.08505 44.4952 5.11127 44.4952C3.09323 44.4952 1.47382 44.3621 0.597046 44.1766L3.88941 26.7845ZM4.84515 41.4419C5.29625 41.4949 5.74735 41.4949 6.30554 41.4949C8.37659 41.4949 10.2616 40.6722 10.2616 38.6801C10.2616 36.9017 8.77522 36.37 6.99517 36.37H5.80198L4.84515 41.4419ZM6.38559 33.5818H7.65992C9.75747 33.5818 11.1914 32.7055 11.1914 31.1656C11.1914 29.8913 10.1556 29.3336 8.69517 29.3336C8.03151 29.3336 7.47331 29.3867 7.18178 29.4397L6.38559 33.5818Z" fill="#84B840"/>
<path d="M28.6365 31.3784L26.9906 40.1407C26.672 41.7867 26.4594 43.1946 26.2733 44.3629H22.9009L23.14 42.2653L23.087 42.2388C21.7591 43.9383 20.1927 44.655 18.6258 44.655C16.5288 44.655 15.2804 43.4867 15.2804 41.017C15.2804 40.3268 15.3599 39.5301 15.546 38.6279L16.9263 31.379H20.7509L19.4225 38.3358C19.317 38.9205 19.237 39.5842 19.237 40.0618C19.237 40.885 19.5826 41.5487 20.5383 41.5487C21.8397 41.5487 23.1935 39.9823 23.6717 37.4066L24.8129 31.379H28.6365V31.3784Z" fill="#84B840"/>
<path d="M28.557 40.9646C29.3002 41.3367 30.7076 41.8673 31.9554 41.8673C33.0177 41.8673 33.5754 41.3362 33.5754 40.6985C33.5754 40.0613 33.1502 39.6102 31.9554 39.0261C30.4685 38.2824 29.2202 37.1936 29.2202 35.5741C29.2202 32.8654 31.5833 31.0864 34.9298 31.0864C36.4426 31.0864 37.6374 31.405 38.2486 31.7506L37.3459 34.4583C36.8153 34.2203 35.8855 33.9006 34.7431 33.9006C33.7349 33.9006 33.0713 34.3258 33.0713 35.0425C33.0713 35.5736 33.6019 36.0247 34.6377 36.5028C36.0716 37.2201 37.5584 38.2818 37.5584 40.0878C37.5584 43.0616 35.0352 44.6816 31.5838 44.6545C29.9644 44.6275 28.398 44.2034 27.6278 43.6452L28.557 40.9646Z" fill="#84B840"/>
<path d="M37.7969 44.3629L40.2666 31.3784H44.0641L41.6204 44.3629H37.7969Z" fill="#84B840"/>
<path d="M43.506 44.363L45.1524 35.6007C45.4705 33.9542 45.683 32.5468 45.8421 31.3785H49.2145L48.9754 33.5296H49.029C50.2497 31.8566 51.8697 31.0864 53.5697 31.0864C55.6937 31.0864 56.9156 32.3878 56.9156 34.6449C56.9156 35.2285 56.809 36.1853 56.703 36.822L55.2691 44.363H51.4456L52.7995 37.1671C52.879 36.716 52.932 36.2113 52.932 35.7337C52.932 34.8045 52.6139 34.1668 51.6311 34.1668C50.3833 34.1668 48.9494 35.7337 48.3913 38.602L47.3295 44.3635H43.506V44.363Z" fill="#84B840"/>
<path d="M67.988 43.6194C66.4746 44.3896 64.589 44.6546 63.1557 44.6546C59.4377 44.6546 57.5256 42.5571 57.5256 39.1576C57.5256 35.2016 60.3934 31.0854 65.0937 31.0854C67.7224 31.0854 69.6079 32.5729 69.6079 34.989C69.6079 38.2814 66.3945 39.4767 61.1901 39.3437C61.1901 39.7158 61.3232 40.3 61.5882 40.6715C62.0923 41.3358 62.9686 41.6808 64.0844 41.6808C65.4918 41.6808 66.6866 41.3623 67.7224 40.8576L67.988 43.6194ZM66.0229 34.9625C66.0229 34.3253 65.4918 33.8737 64.6156 33.8737C62.8366 33.8737 61.8273 35.3606 61.5617 36.5554C64.536 36.5819 66.0235 36.1838 66.0235 34.989V34.9625H66.0229Z" fill="#84B840"/>
<path d="M69.5809 40.9646C70.3241 41.3367 71.7315 41.8673 72.9798 41.8673C74.0421 41.8673 74.5998 41.3362 74.5998 40.6985C74.5998 40.0613 74.1752 39.6102 72.9798 39.0261C71.4924 38.2824 70.2446 37.1936 70.2446 35.5741C70.2446 32.8654 72.6082 31.0864 75.9536 31.0864C77.4675 31.0864 78.6624 31.405 79.273 31.7506L78.3697 34.4583C77.8391 34.2203 76.9093 33.9006 75.7675 33.9006C74.7583 33.9006 74.0946 34.3258 74.0946 35.0425C74.0946 35.5736 74.6257 36.0247 75.6615 36.5028C77.0949 37.2201 78.5818 38.2818 78.5818 40.0878C78.5818 43.0616 76.0591 44.6816 72.6077 44.6545C70.9877 44.6275 69.4208 44.2034 68.6511 43.6452L69.5809 40.9646Z" fill="#84B840"/>
<path d="M79.5906 41.6009C80.5463 42.2646 81.9007 42.7427 83.3881 42.7427C85.4056 42.7427 87.2646 41.5474 87.2646 39.3968C87.2646 38.043 86.5214 37.0602 84.6365 36.0509C82.3528 34.8031 81.078 33.3686 81.078 31.4572C81.078 28.2443 83.8392 26.1992 87.1316 26.1992C88.8846 26.1992 90.1854 26.7039 90.7966 27.1285L89.9999 28.9345C89.4417 28.5888 88.3264 28.0577 86.9195 28.0847C84.6895 28.0847 83.3611 29.5451 83.3611 31.005C83.3611 32.4659 84.2643 33.2886 86.1493 34.3244C88.3529 35.5192 89.5482 36.9266 89.5482 39.1036C89.5482 42.2105 87.131 44.6531 83.096 44.6531C81.29 44.6261 79.5375 44.069 78.7938 43.4053L79.5906 41.6009Z" fill="#84B840"/>
<path d="M95.9475 28.4302L95.3633 31.51H98.4436L98.098 33.2365H95.0182L93.8499 39.5026C93.6904 40.2193 93.5843 40.8835 93.5843 41.5472C93.5843 42.3174 93.9559 42.7955 94.8062 42.7955C95.2043 42.7955 95.5494 42.769 95.842 42.6895L95.7354 44.4149C95.3374 44.5745 94.6737 44.654 94.036 44.654C92.0969 44.654 91.3272 43.4857 91.3272 42.1578C91.3272 41.4141 91.4332 40.6709 91.6188 39.7417L92.8677 33.2365H91.0352L91.3537 31.51H93.1857L93.6379 29.1468L95.9475 28.4302Z" fill="#84B840"/>
<path d="M105.798 44.3627C105.798 43.5931 105.931 42.3712 106.091 41.0439H106.038C104.629 43.7256 102.85 44.6548 101.046 44.6548C98.7616 44.6548 97.3553 42.8493 97.3553 40.4062C97.3553 35.919 100.648 31.2192 106.224 31.2192C107.446 31.2192 108.8 31.4318 109.676 31.6974L108.375 38.4152C107.95 40.6458 107.791 42.9294 107.844 44.3633H105.798V44.3627ZM107.206 33.1572C106.887 33.0512 106.436 32.9712 105.692 32.9712C102.372 32.9712 99.6379 36.4231 99.6379 40.0086C99.6379 41.442 100.143 42.8493 101.815 42.8493C103.674 42.8493 105.851 40.4592 106.462 37.0338L107.206 33.1572Z" fill="#84B840"/>
<path d="M115.463 28.4302L114.88 31.51H117.96L117.614 33.2365H114.534L113.366 39.5026C113.206 40.2193 113.101 40.8835 113.101 41.5472C113.101 42.3174 113.472 42.7955 114.322 42.7955C114.72 42.7955 115.065 42.769 115.357 42.6895L115.252 44.4149C114.854 44.5745 114.189 44.654 113.552 44.654C111.613 44.654 110.843 43.4857 110.843 42.1578C110.843 41.4141 110.949 40.6709 111.135 39.7417L112.383 33.2365H110.551L110.869 31.51H112.702L113.154 29.1468L115.463 28.4302Z" fill="#84B840"/>
<path d="M124.587 25.481C124.202 24.7394 123.465 24.0385 122.709 23.7107C121.456 23.1487 119.753 23.3515 118.73 24.2689C117.524 25.2657 117.071 26.7921 117.47 28.2968C117.813 29.5479 119.035 30.7481 120.321 30.9823C121.895 31.2879 123.397 30.7422 124.326 29.4143C125.107 28.3607 125.23 26.6369 124.587 25.481ZM123.933 29.2234C123.105 30.349 121.826 30.8136 120.452 30.5659C119.298 30.356 118.159 29.3034 117.885 28.1546C117.538 26.7537 117.991 25.336 119.168 24.4706C120.164 23.7004 121.848 23.6295 122.911 24.3046C123.445 24.6167 123.918 25.1527 124.207 25.6822C124.749 26.7375 124.67 28.2833 123.933 29.2234Z" fill="#84B840"/>
<path d="M123.386 28.9263C123.228 28.9193 123.089 28.8663 122.982 28.7359L121.676 27.0965C122.114 27.0089 122.656 26.7644 122.756 26.2651C122.79 26.058 122.807 25.8 122.697 25.6231C122.474 25.1812 122.013 25.0103 121.557 24.9811L119.406 24.9697C119.389 25.0254 119.389 25.1039 119.406 25.159C119.508 25.1655 119.603 25.1893 119.691 25.2304C119.819 25.3105 119.848 25.4533 119.87 25.5874L119.858 28.5574L119.822 28.7121C119.749 28.9166 119.521 28.8998 119.347 28.9377L119.359 29.1037H119.406L121.046 29.0924L121.034 28.9258C120.876 28.9041 120.695 28.9133 120.606 28.7478C120.479 28.2653 120.55 27.6866 120.547 27.1673C120.682 27.1711 120.824 27.1581 120.951 27.1792L122.472 29.1037C122.781 29.101 123.097 29.1134 123.399 29.0924L123.386 28.9263ZM120.547 26.9066V25.3029C120.99 25.1644 121.605 25.1569 121.889 25.6004C122.042 25.82 122.048 26.1905 121.936 26.4317C121.664 26.9504 121.074 26.9001 120.547 26.9066Z" fill="#84B840"/>
<path d="M120.748 0.49369C113.305 12.061 101.791 26.243 84.7538 23.8004C84.3903 23.5343 83.1198 23.4478 82.4523 23.9178C81.8931 24.1049 81.3197 24.3499 80.7372 24.6285C76.6627 26.5751 72.1198 30.1255 68.2011 26.6633C67.842 26.282 67.5174 25.8688 67.2113 25.4382C66.2896 24.1477 65.5216 22.71 64.4084 21.5958C64.0417 21.195 63.4516 20.9505 63.0449 20.9061C62.3417 21.07 61.697 21.3264 61.089 21.639C60.4805 21.9527 59.9088 22.3227 59.3517 22.7154C56.3768 25.5567 52.1996 28.6435 47.4636 29.1833C47.1001 29.2255 46.7318 29.2525 46.3586 29.2725C44.6153 29.6728 42.9375 29.4905 41.1152 30.6399C42.0358 27.3708 44.201 28.28 46.7128 27.7889C47.0742 27.7591 47.429 27.7262 47.7811 27.6791C52.3521 27.0755 56.2324 24.1817 59.4464 21.4286C59.9948 21.0154 60.5622 20.6346 61.175 20.3328C61.7878 20.0304 62.4461 19.8065 63.1768 19.7048C64.231 19.4576 64.9466 20.4388 65.4983 21.0403C66.3059 22.1215 66.9365 23.4088 67.7457 24.5452C68.0161 24.9244 68.305 25.2868 68.6279 25.6183C71.0521 27.5996 77.8905 24.6934 80.5279 23.4505C81.2153 23.1248 81.9077 22.8371 82.6032 22.6202C83.638 22.4693 84.3114 22.6727 86.0509 22.8376C102.755 24.4203 113.407 11.1361 120.751 0.488281" fill="#84B840"/>
</svg>
