<svg width="19" height="22" viewBox="0 0 19 22" fill="none" xmlns="http://www.w3.org/2000/svg">
<path d="M18.4658 15.3012L14.3677 13.3497C14.1926 13.2668 13.998 13.2493 13.8133 13.2999C13.6285 13.3505 13.4635 13.4664 13.3432 13.6302L11.5283 16.094C8.68003 14.6018 6.38783 12.0549 5.0449 8.8902L7.26225 6.87368C7.40996 6.7402 7.5145 6.55688 7.56006 6.35148C7.60561 6.14608 7.5897 5.92978 7.51473 5.73532L5.7584 1.18189C5.67612 0.972277 5.53058 0.801132 5.34689 0.69797C5.16321 0.594808 4.95288 0.566094 4.75218 0.616781L0.94681 1.59252C0.753311 1.64216 0.58067 1.76322 0.457065 1.93593C0.333461 2.10863 0.266191 2.32279 0.266235 2.54345C0.266235 12.9716 7.87331 21.4077 17.244 21.4077C17.4427 21.4078 17.6355 21.3331 17.791 21.1957C17.9465 21.0584 18.0555 20.8665 18.1002 20.6515L18.9784 16.4233C19.0237 16.1992 18.9973 15.9646 18.9038 15.7598C18.8102 15.555 18.6553 15.3928 18.4658 15.3012Z" fill="#F56F00"/>
</svg>
