<svg width="19" height="22" viewBox="0 0 19 22" fill="none" xmlns="http://www.w3.org/2000/svg">
<path d="M17.5547 15.4015L13.7148 13.4613C13.5508 13.3789 13.3685 13.3615 13.1953 13.4118C13.0222 13.4621 12.8676 13.5774 12.7548 13.7402L11.0543 16.1898C8.38556 14.7062 6.2378 12.174 4.97949 9.02745L7.05713 7.02253C7.19552 6.88982 7.29348 6.70756 7.33616 6.50334C7.37885 6.29912 7.36394 6.08406 7.29369 5.89073L5.64804 1.3635C5.57094 1.15509 5.43457 0.984925 5.26246 0.882356C5.09035 0.779787 4.89327 0.751239 4.70522 0.801634L1.13964 1.77176C0.958336 1.82112 0.796574 1.94148 0.680758 2.11319C0.564942 2.2849 0.501911 2.49783 0.501953 2.71722C0.501953 13.0854 7.62967 21.4729 16.4099 21.4729C16.596 21.473 16.7767 21.3988 16.9224 21.2622C17.0681 21.1256 17.1703 20.9349 17.2122 20.721L18.035 16.5172C18.0774 16.2944 18.0527 16.0611 17.9651 15.8575C17.8774 15.6539 17.7323 15.4926 17.5547 15.4015Z" fill="#0066FF"/>
</svg>
