<svg width="40" height="41" viewBox="0 0 40 41" fill="none" xmlns="http://www.w3.org/2000/svg">
<g clip-path="url(#clip0_107_182)">
<path d="M20 40.813C31.0457 40.813 40 31.8587 40 20.813C40 9.76729 31.0457 0.812988 20 0.812988C8.9543 0.812988 0 9.76729 0 20.813C0 31.8587 8.9543 40.813 20 40.813Z" fill="#2787F5"/>
<path d="M22.884 11.4185H17.116C11.852 11.4185 10.6055 12.6649 10.6055 17.929V23.697C10.6055 28.961 11.852 30.2075 17.116 30.2075H22.884C28.148 30.2075 29.3945 28.961 29.3945 23.697V17.929C29.3945 12.6649 28.1348 11.4185 22.884 11.4185ZM25.7746 24.8239H24.4074C23.8902 24.8239 23.7313 24.413 22.8031 23.4716C21.9941 22.6903 21.6363 22.5833 21.4359 22.5833C21.1574 22.5833 21.0777 22.6614 21.0777 23.0474V24.2806C21.0777 24.6122 20.9715 24.811 20.0965 24.811C18.6512 24.811 17.0469 23.936 15.9195 22.3048C14.2223 19.9181 13.7582 18.1278 13.7582 17.7567C13.7582 17.5579 13.8363 17.3724 14.2223 17.3724H15.5895C15.9344 17.3724 16.0668 17.5313 16.1992 17.9028C16.8754 19.8521 18.0027 21.5626 18.4648 21.5626C18.6371 21.5626 18.7168 21.4845 18.7168 21.0454V19.0298C18.6637 18.1017 18.173 18.022 18.173 17.6907C18.173 17.5317 18.3055 17.3724 18.518 17.3724H20.6664C20.9582 17.3724 21.0641 17.5313 21.0641 17.8763V20.5942C21.0641 20.886 21.1965 20.9919 21.2762 20.9919C21.4484 20.9919 21.5945 20.8856 21.9125 20.5677C22.8938 19.4673 23.5965 17.77 23.5965 17.77C23.6895 17.5712 23.8484 17.3856 24.1934 17.3856H25.5605C25.9715 17.3856 26.0645 17.5978 25.9715 17.8896C25.7992 18.6853 24.1285 21.0454 24.1285 21.0454C23.9828 21.2841 23.9297 21.3903 24.1285 21.6552C24.2742 21.854 24.7535 22.2649 25.0699 22.6364C25.6535 23.3005 26.1043 23.8563 26.2234 24.2407C26.3582 24.6251 26.159 24.8239 25.7746 24.8239Z" fill="white"/>
</g>
<defs>
<clipPath id="clip0_107_182">
<rect width="40" height="40" fill="white" transform="translate(0 0.812988)"/>
</clipPath>
</defs>
</svg>
