<svg width="33" height="24" viewBox="0 0 33 24" fill="none" xmlns="http://www.w3.org/2000/svg">
<path d="M31.1709 2.46151C30.006 1.0572 27.8552 0.484375 23.7478 0.484375H8.83775C4.6363 0.484375 2.44912 1.09415 1.28859 2.58925C0.157104 4.04698 0.157104 6.19482 0.157104 9.16749V14.8334C0.157104 20.5924 1.4996 23.5164 8.83775 23.5164H23.7479C27.3098 23.5164 29.2836 23.0109 30.5605 21.7716C31.87 20.5007 32.4287 18.4257 32.4287 14.8334V9.16749C32.4287 6.03256 32.3412 3.87204 31.1709 2.46151ZM20.8756 12.7827L14.105 16.3711C13.9536 16.4514 13.7881 16.4912 13.6228 16.4912C13.4356 16.4912 13.2489 16.4401 13.0834 16.3385C12.772 16.1471 12.5818 15.8047 12.5818 15.4355V8.28154C12.5818 7.91288 12.7715 7.57083 13.0823 7.37932C13.3933 7.18782 13.78 7.17473 14.1026 7.3447L20.8732 10.91C21.2177 11.0914 21.434 11.452 21.4345 11.8455C21.4349 12.2393 21.2195 12.6004 20.8756 12.7827Z" fill="#FF0000"/>
</svg>
