<svg width="41" height="41" viewBox="0 0 41 41" fill="none" xmlns="http://www.w3.org/2000/svg">
<path d="M20.2271 40.813C31.2727 40.813 40.2271 31.8587 40.2271 20.813C40.2271 9.76729 31.2727 0.812988 20.2271 0.812988C9.18136 0.812988 0.227051 9.76729 0.227051 20.813C0.227051 31.8587 9.18136 40.813 20.2271 40.813Z" fill="#FF0000"/>
<path d="M31.3657 13.7709C30.4936 12.7342 28.8834 12.3113 25.8083 12.3113H14.6457C11.5002 12.3113 9.86269 12.7614 8.99384 13.8652C8.14673 14.9414 8.14673 16.527 8.14673 18.7216V22.9044C8.14673 27.156 9.15182 29.3147 14.6457 29.3147H25.8084C28.4751 29.3147 29.9528 28.9415 30.9088 28.0266C31.8892 27.0884 32.3075 25.5565 32.3075 22.9044V18.7216C32.3075 16.4072 32.2419 14.8122 31.3657 13.7709ZM23.658 21.3905L18.5891 24.0397C18.4758 24.0989 18.3518 24.1283 18.2281 24.1283C18.0879 24.1283 17.9481 24.0906 17.8243 24.0156C17.5911 23.8743 17.4487 23.6215 17.4487 23.3489V18.0675C17.4487 17.7954 17.5907 17.5429 17.8234 17.4015C18.0562 17.2601 18.3458 17.2504 18.5873 17.3759L23.6562 20.008C23.9141 20.1419 24.0761 20.4082 24.0764 20.6986C24.0768 20.9893 23.9155 21.256 23.658 21.3905Z" fill="white"/>
</svg>
