<svg width="71" height="70" viewBox="0 0 71 70" fill="none" xmlns="http://www.w3.org/2000/svg">
<circle cx="35.9933" cy="35" r="35" fill="#D2EDFF"/>
<path fill-rule="evenodd" clip-rule="evenodd" d="M35.9765 15.8037C35.6352 15.8037 35.3167 15.9213 35.0824 16.1555C34.8481 16.3898 34.7306 16.7083 34.7306 17.0497V18.3137C26.8513 18.8088 19.9424 23.998 16.8613 31.8003L16.8535 31.8203L16.8475 31.8408C16.5209 32.9724 17.7305 33.8859 18.7032 33.3094L18.7069 33.3072C19.4397 32.8633 20.1558 32.6529 20.9381 32.6529C22.5159 32.6529 23.9747 33.5124 24.9377 35.0032L24.944 35.013L24.9508 35.0224C25.1216 35.2591 25.3227 35.4311 25.5538 35.5234C25.7887 35.6173 26.0187 35.6146 26.2176 35.5608C26.5868 35.4609 26.8587 35.1856 26.9751 34.9853C27.09 34.7878 27.2161 34.6025 27.3517 34.4296L33.9257 33.798C34.2166 34.0504 34.4866 34.3415 34.7306 34.6683V50.7924C34.7306 51.2996 34.3385 51.697 33.9102 51.697C33.4819 51.697 33.0898 51.2996 33.0898 50.7924V49.4378C33.0898 49.0941 32.9731 48.7743 32.7368 48.5397C32.501 48.3055 32.1821 48.1918 31.8438 48.1918C31.5025 48.1918 31.184 48.3094 30.9497 48.5436C30.7154 48.7779 30.5979 49.0964 30.5979 49.4378V50.7924C30.5979 52.6225 32.0523 54.1965 33.9102 54.1965C35.7681 54.1965 37.2225 52.6225 37.2225 50.7924V34.6981C37.668 34.1332 38.1763 33.675 38.7216 33.3372L42.5846 32.966C43.5266 33.3387 44.3626 34.0413 44.9889 35.0108L44.9924 35.0162L44.996 35.0215C45.1652 35.2678 45.3703 35.4449 45.609 35.5393C45.8491 35.6342 46.0847 35.6301 46.287 35.5788C46.6649 35.4829 46.9579 35.2163 47.0912 35.0234C48.1454 33.5148 49.6038 32.6605 51.0991 32.6605C51.8814 32.6605 52.5975 32.871 53.3302 33.3149L53.3381 33.3194C53.686 33.5208 54.0311 33.6261 54.3546 33.5742C54.704 33.5181 54.936 33.2946 55.0605 33.039C55.178 32.7977 55.2059 32.5237 55.1874 32.2839C55.1697 32.0559 55.107 31.8175 54.9951 31.6161C51.9077 23.8979 45.08 18.8053 37.2225 18.3137V17.0497C37.2225 16.706 37.1058 16.3862 36.8695 16.1516C36.6337 15.9174 36.3148 15.8037 35.9765 15.8037ZM42.5778 32.9633C42.58 32.9642 42.5823 32.9651 42.5846 32.966L43.4392 32.8839C43.4377 32.883 43.4362 32.8821 43.4347 32.8812L42.5778 32.9633ZM38.73 33.332C38.7272 33.3337 38.7244 33.3354 38.7216 33.3372L37.8368 33.4222C37.8389 33.4204 37.841 33.4187 37.8431 33.4169L38.73 33.332ZM26.7611 34.4787C26.7592 34.4814 26.7574 34.4842 26.7556 34.4869L27.3517 34.4296C27.3539 34.4269 27.356 34.4242 27.3581 34.4215L33.9198 33.7928C33.9217 33.7945 33.9237 33.7963 33.9257 33.798L34.5229 33.7406C34.5213 33.7389 34.5196 33.7372 34.5179 33.7355L33.9198 33.7928C33.0706 33.0583 32.0436 32.6529 30.9637 32.6529C29.6395 32.6529 28.2793 33.2527 27.3581 34.4215L26.7611 34.4787ZM45.6735 32.6667L46.4017 32.597C46.4009 32.5978 46.4 32.5986 46.3991 32.5995L45.6757 32.669C45.675 32.6682 45.6742 32.6675 45.6735 32.6667ZM38.73 33.332C39.4394 32.8944 40.2113 32.6605 40.9893 32.6605C41.5385 32.6605 42.0733 32.7647 42.5778 32.9633L38.73 33.332ZM20.9381 30.1687C20.7492 30.1687 20.571 30.1798 20.3982 30.198C23.6198 24.4043 29.5176 20.7752 35.9765 20.7752C42.4275 20.7752 48.3315 24.4106 51.5471 30.1972C51.377 30.1795 51.2012 30.1687 51.0149 30.1687C49.1193 30.1687 47.3805 30.9787 46.0022 32.3589C44.6251 30.9788 42.8922 30.1687 40.9893 30.1687C39.0937 30.1687 37.3548 30.9787 35.9766 32.3589C34.5995 30.9788 32.8666 30.1687 30.9637 30.1687C29.0681 30.1687 27.3292 30.9787 25.951 32.3589C24.5738 30.9788 22.841 30.1687 20.9381 30.1687Z" fill="#0066FF"/>
</svg>
