<svg width="71" height="70" viewBox="0 0 71 70" fill="none" xmlns="http://www.w3.org/2000/svg">
<circle cx="35.3124" cy="35" r="35" fill="#D2EDFF"/>
<path d="M52.8391 30.2148C52.8391 25.7044 49.171 22.0349 44.6622 22.0349C44.4663 22.0349 44.2685 22.0423 44.0698 22.0571C42.1295 19.14 38.8425 17.3584 35.3124 17.3584C31.7824 17.3584 28.4954 19.1404 26.5552 22.0571C26.3564 22.0423 26.1586 22.0349 25.9627 22.0349C21.4538 22.0349 17.7857 25.7044 17.7857 30.2148C17.7857 34.3296 20.8393 37.7428 24.7985 38.3099V49.6145C24.7985 51.2837 26.1564 52.6416 27.8255 52.6416H42.7993C44.4686 52.6416 45.8263 51.2836 45.8263 49.6145V38.3099C49.7856 37.7428 52.8391 34.3295 52.8391 30.2148ZM42.7993 50.313H27.8256C27.4471 50.313 27.1271 49.9931 27.1271 49.6143V38.311C28.2678 38.1494 29.3507 37.75 30.3276 37.129C31.826 37.9394 33.5302 38.3943 35.3124 38.3943C37.0946 38.3943 38.7987 37.9394 40.2971 37.1291C41.2742 37.75 42.3573 38.1494 43.4979 38.311V49.6143C43.4979 49.9931 43.1779 50.313 42.7993 50.313ZM44.6622 36.0657C43.8785 36.0657 43.1209 35.9126 42.4169 35.6183C43.8338 34.3194 44.9049 32.631 45.4427 30.6907C45.6144 30.071 45.2513 29.4294 44.6317 29.2576C44.0119 29.086 43.3705 29.4491 43.1986 30.0687C42.2202 33.5997 38.9772 36.0657 35.3124 36.0657C31.6476 36.0657 28.4047 33.5997 27.4262 30.0687C27.2545 29.449 26.6133 29.086 25.9931 29.2576C25.3735 29.4293 25.0104 30.071 25.1821 30.6907C25.7198 32.631 26.791 34.3195 28.2079 35.6183C27.5039 35.9126 26.7463 36.0657 25.9627 36.0657C22.7378 36.0657 20.1143 33.441 20.1143 30.2148C20.1143 26.9884 22.7379 24.3635 25.9627 24.3635C26.2887 24.3635 26.6243 24.3927 26.9603 24.4502C27.4452 24.5329 27.9309 24.3021 28.172 23.8727C29.622 21.2909 32.358 19.687 35.3123 19.687C38.2666 19.687 41.0026 21.291 42.4528 23.8728C42.6938 24.3022 43.1792 24.533 43.6645 24.4502C44.0005 24.3927 44.3361 24.3635 44.662 24.3635C47.8868 24.3635 50.5103 26.9884 50.5103 30.2148C50.5107 33.441 47.887 36.0657 44.6622 36.0657Z" fill="#0066FF"/>
</svg>
