<svg width="61" height="60" viewBox="0 0 61 60" fill="none" xmlns="http://www.w3.org/2000/svg">
<circle cx="30.9933" cy="30" r="30" fill="#0066FF"/>
<path d="M40.0401 34.0474C38.1159 34.0474 36.3932 34.9253 35.2502 36.3012L27.815 32.0798C28.0462 31.4291 28.1733 30.7295 28.1733 30.0004C28.1733 29.2715 28.0462 28.5719 27.815 27.9212L35.2496 23.6988C36.3925 25.0752 38.1154 25.9533 40.0398 25.9533C43.4723 25.9533 46.2649 23.1597 46.2649 19.7257C46.2652 16.2927 43.4726 13.5 40.0401 13.5C36.6072 13.5 33.8143 16.2927 33.8143 19.7256C33.8143 20.4546 33.9412 21.1544 34.1726 21.8052L26.7375 26.0278C25.5946 24.6521 23.8721 23.7746 21.9483 23.7746C18.5149 23.7746 15.7216 26.5673 15.7216 30.0003C15.7216 33.4331 18.5149 36.2258 21.9483 36.2258C23.8721 36.2258 25.5945 35.3483 26.7373 33.9728L34.1726 38.1944C33.9412 38.8452 33.8141 39.5451 33.8141 40.2743C33.8141 43.7071 36.607 46.4999 40.04 46.4999C43.4725 46.4999 46.2651 43.707 46.2651 40.2743C46.2652 36.8409 43.4726 34.0474 40.0401 34.0474ZM40.0401 15.6785C42.2714 15.6785 44.0867 17.494 44.0867 19.7256C44.0867 21.9583 42.2714 23.7746 40.0401 23.7746C37.8084 23.7746 35.9928 21.9583 35.9928 19.7256C35.9928 17.494 37.8084 15.6785 40.0401 15.6785ZM21.9485 34.0474C19.7163 34.0474 17.9003 32.2318 17.9003 30.0004C17.9003 27.7687 19.7163 25.9533 21.9485 25.9533C24.1797 25.9533 25.9949 27.7687 25.9949 30.0004C25.9949 32.2318 24.1796 34.0474 21.9485 34.0474ZM40.0401 44.3215C37.8084 44.3215 35.9928 42.5059 35.9928 40.2744C35.9928 38.0422 37.8084 36.226 40.0401 36.226C42.2714 36.226 44.0867 38.0422 44.0867 40.2744C44.0867 42.5059 42.2714 44.3215 40.0401 44.3215Z" fill="white"/>
</svg>
