<svg width="61" height="60" viewBox="0 0 61 60" fill="none" xmlns="http://www.w3.org/2000/svg">
<circle cx="30.9933" cy="30" r="30" fill="#0066FF"/>
<path d="M38.2553 22.5048C37.3244 22.5048 36.4749 22.8602 35.8353 23.4421C35.1957 22.8602 34.3462 22.5048 33.4154 22.5048C32.4837 22.5048 31.6334 22.8603 30.9933 23.4424C30.3538 22.8603 29.5043 22.5048 28.5733 22.5048C28.1375 22.5048 27.7196 22.5827 27.3327 22.7251V17.6477C27.3328 15.6622 25.7181 14.0469 23.7334 14.0469C21.7477 14.0469 20.132 15.6622 20.132 17.6477V35.093C20.132 41.0813 25.0041 45.9529 30.9929 45.9529C36.9821 45.9529 41.8547 41.0813 41.8547 35.093V26.1042C41.8547 24.1194 40.24 22.5048 38.2553 22.5048ZM39.4963 35.093C39.4963 39.7807 35.6817 43.5945 30.9929 43.5945C26.3046 43.5945 22.4904 39.7807 22.4904 35.093V17.6477C22.4904 16.9626 23.0481 16.4053 23.7334 16.4053C24.4177 16.4053 24.9744 16.9626 24.9744 17.6477V26.1041V28.6906C24.9744 29.3418 25.5024 29.8698 26.1536 29.8698C26.8048 29.8698 27.3328 29.3418 27.3328 28.6906V26.1042C27.3328 25.42 27.8892 24.8632 28.5735 24.8632C29.2574 24.8632 29.8138 25.42 29.8138 26.1042V28.6907C29.8138 29.342 30.3418 29.8699 30.993 29.8699C31.6443 29.8699 32.1722 29.342 32.1722 28.6907V26.1042C32.1722 25.42 32.7301 24.8632 33.4156 24.8632C34.0997 24.8632 34.6562 25.42 34.6562 26.1042V28.6907C34.6562 29.342 35.1842 29.8699 35.8354 29.8699C36.4867 29.8699 37.0146 29.342 37.0146 28.6907V26.1042C37.0146 25.42 37.5712 24.8632 38.2556 24.8632C38.9399 24.8632 39.4966 25.42 39.4966 26.1042V35.093H39.4963Z" fill="white"/>
</svg>
