<svg width="61" height="60" viewBox="0 0 61 60" fill="none" xmlns="http://www.w3.org/2000/svg">
<circle cx="30.9933" cy="30" r="30" fill="#0066FF"/>
<path d="M48.049 43.9901L38.0089 33.9429C39.9882 31.5691 41.1787 28.5356 41.1787 25.2223C41.1787 17.6636 34.9753 11.5176 27.3448 11.5176C19.7144 11.5176 13.4967 17.6707 13.4967 25.2295C13.4967 32.7883 19.7 38.9342 27.3305 38.9342C30.572 38.9342 33.5554 37.8226 35.922 35.9652L45.9979 46.0412C46.586 46.6293 47.4609 46.6293 48.049 46.0412C48.637 45.4531 48.637 44.5782 48.049 43.9901ZM16.437 25.2295C16.437 19.2915 21.328 14.4651 27.3305 14.4651C33.333 14.4651 38.224 19.2915 38.224 25.2295C38.224 31.1675 33.333 35.9939 27.3305 35.9939C21.328 35.9939 16.437 31.1603 16.437 25.2295Z" fill="white"/>
</svg>
