<svg width="61" height="60" viewBox="0 0 61 60" fill="none" xmlns="http://www.w3.org/2000/svg">
<circle cx="30.9933" cy="30" r="30" fill="#0066FF"/>
<path d="M30.9933 8C22.0284 8 14.7347 15.2935 14.7347 24.2586C14.7347 32.9382 29.5568 50.8634 30.1878 51.6222C30.3868 51.8614 30.682 52 30.9933 52C31.3046 52 31.5998 51.8616 31.7989 51.6222C32.43 50.8633 47.252 32.9382 47.252 24.2586C47.252 15.2935 39.9584 8 30.9933 8ZM30.9933 49.2899C29.6791 47.6488 26.9484 44.1522 24.2463 40.1551C19.3945 32.9783 16.8299 27.4814 16.8299 24.2586C16.8299 16.4488 23.1837 10.0952 30.9933 10.0952C38.803 10.0952 45.1567 16.4488 45.1567 24.2586C45.1567 27.4812 42.5923 32.9782 37.7404 40.1551C35.0381 44.1522 32.3076 47.6488 30.9933 49.2899Z" fill="white"/>
<path d="M30.9933 16.0322C26.2566 16.0322 22.4029 19.8859 22.4029 24.6227C22.4029 29.3595 26.2566 33.2132 30.9933 33.2132C35.7301 33.2132 39.5838 29.3595 39.5838 24.6227C39.5838 19.8859 35.7301 16.0322 30.9933 16.0322ZM30.9933 31.1179C27.4119 31.1179 24.4981 28.2042 24.4981 24.6227C24.4981 21.0412 27.4119 18.1275 30.9933 18.1275C34.5749 18.1275 37.4886 21.0412 37.4886 24.6227C37.4886 28.2042 34.5749 31.1179 30.9933 31.1179Z" fill="white"/>
</svg>
