<svg width="21" height="21" viewBox="0 0 21 21" fill="none" xmlns="http://www.w3.org/2000/svg">
<path d="M20.0347 14.2479L15.6597 12.3729C15.4728 12.2933 15.265 12.2765 15.0678 12.3251C14.8705 12.3737 14.6944 12.4851 14.5659 12.6424L12.6284 15.0097C9.58758 13.576 7.14045 11.1288 5.70675 8.08807L8.07398 6.15053C8.23167 6.02228 8.34328 5.84614 8.39192 5.64878C8.44055 5.45143 8.42356 5.2436 8.34352 5.05676L6.46849 0.681687C6.38064 0.48028 6.22527 0.315839 6.02916 0.216717C5.83306 0.117596 5.60851 0.0900072 5.39425 0.138709L1.33168 1.07622C1.1251 1.12393 0.94079 1.24024 0.808831 1.40619C0.676871 1.57213 0.605055 1.7779 0.605103 1.98991C0.605103 12.0096 8.72634 20.1152 18.7304 20.1152C18.9425 20.1154 19.1484 20.0436 19.3144 19.9116C19.4804 19.7797 19.5968 19.5953 19.6445 19.3887L20.582 15.3261C20.6304 15.1108 20.6022 14.8853 20.5023 14.6885C20.4025 14.4918 20.2371 14.336 20.0347 14.2479Z" fill="#CACACA"/>
</svg>
