<svg width="21" height="16" viewBox="0 0 21 16" fill="none" xmlns="http://www.w3.org/2000/svg">
<path d="M19.7262 5.56836C19.8785 5.44727 20.1051 5.56055 20.1051 5.75195V13.7402C20.1051 14.7754 19.2653 15.6152 18.2301 15.6152H1.9801C0.944946 15.6152 0.105103 14.7754 0.105103 13.7402V5.75586C0.105103 5.56055 0.327759 5.45117 0.484009 5.57227C1.35901 6.25195 2.51917 7.11523 6.50354 10.0098C7.32776 10.6113 8.71838 11.877 10.1051 11.8691C11.4996 11.8809 12.9176 10.5879 13.7106 10.0098C17.6949 7.11523 18.8512 6.24805 19.7262 5.56836ZM10.1051 10.6152C11.0114 10.6309 12.316 9.47461 12.9723 8.99805C18.1559 5.23633 18.5504 4.9082 19.7457 3.9707C19.9723 3.79492 20.1051 3.52148 20.1051 3.23242V2.49023C20.1051 1.45508 19.2653 0.615234 18.2301 0.615234H1.9801C0.944946 0.615234 0.105103 1.45508 0.105103 2.49023V3.23242C0.105103 3.52148 0.237915 3.79102 0.464478 3.9707C1.65979 4.9043 2.05432 5.23633 7.23792 8.99805C7.89417 9.47461 9.19885 10.6309 10.1051 10.6152Z" fill="#CACACA"/>
</svg>
