<svg width="18" height="21" viewBox="0 0 18 21" fill="none" xmlns="http://www.w3.org/2000/svg">
<path d="M8.8551 10.1152C11.6168 10.1152 13.8551 7.87695 13.8551 5.11523C13.8551 2.35352 11.6168 0.115234 8.8551 0.115234C6.09338 0.115234 3.8551 2.35352 3.8551 5.11523C3.8551 7.87695 6.09338 10.1152 8.8551 10.1152ZM12.5973 11.3887L10.7301 18.8652L9.4801 13.5527L10.7301 11.3652H6.9801L8.2301 13.5527L6.9801 18.8652L5.11292 11.3887C2.32776 11.5215 0.105103 13.7988 0.105103 16.6152V18.2402C0.105103 19.2754 0.944946 20.1152 1.9801 20.1152H15.7301C16.7653 20.1152 17.6051 19.2754 17.6051 18.2402V16.6152C17.6051 13.7988 15.3824 11.5215 12.5973 11.3887Z" fill="#CACACA"/>
</svg>
