<svg width="26" height="26" viewBox="0 0 26 26" fill="none" xmlns="http://www.w3.org/2000/svg">
<circle cx="13" cy="12.5082" r="12.5" fill="#A8A8A8"/>
<path d="M18.3604 14.8575L15.8733 13.7917C15.7671 13.7464 15.649 13.7368 15.5368 13.7645C15.4247 13.7921 15.3246 13.8554 15.2515 13.9449L14.1501 15.2906C12.4216 14.4756 11.0304 13.0844 10.2154 11.3559L11.5611 10.2545C11.6508 10.1815 11.7142 10.0814 11.7419 9.96923C11.7695 9.85704 11.7598 9.7389 11.7143 9.63269L10.6485 7.14562C10.5985 7.03112 10.5102 6.93764 10.3987 6.8813C10.2872 6.82495 10.1596 6.80927 10.0378 6.83695L7.72837 7.3699C7.61094 7.39701 7.50616 7.46314 7.43115 7.55747C7.35614 7.6518 7.31531 7.76877 7.31534 7.8893C7.31534 13.5851 11.932 18.1929 17.6189 18.1929C17.7395 18.193 17.8565 18.1522 17.9509 18.0771C18.0453 18.0021 18.1114 17.8973 18.1385 17.7799L18.6715 15.4704C18.699 15.348 18.683 15.2199 18.6262 15.108C18.5694 14.9962 18.4754 14.9076 18.3604 14.8575Z" fill="white"/>
</svg>
