<svg width="26" height="26" viewBox="0 0 26 26" fill="none" xmlns="http://www.w3.org/2000/svg">
<circle cx="13" cy="12.5082" r="12.5" fill="#A8A8A8"/>
<path d="M18.6879 11.0025C18.778 10.931 18.9119 10.9979 18.9119 11.1111V15.8337C18.9119 16.4457 18.4154 16.9422 17.8034 16.9422H8.1965C7.58452 16.9422 7.08801 16.4457 7.08801 15.8337V11.1134C7.08801 10.9979 7.21965 10.9333 7.31202 11.0049C7.82932 11.4067 8.5152 11.9171 10.8707 13.6283C11.358 13.9839 12.1801 14.7322 13 14.7275C13.8244 14.7345 14.6627 13.9701 15.1315 13.6283C17.4871 11.9171 18.1706 11.4044 18.6879 11.0025ZM13 13.9862C13.5357 13.9955 14.3071 13.3119 14.695 13.0302C17.7596 10.8063 17.9928 10.6123 18.6995 10.058C18.8334 9.9541 18.9119 9.79244 18.9119 9.62155V9.18277C18.9119 8.57079 18.4154 8.07428 17.8034 8.07428H8.1965C7.58452 8.07428 7.08801 8.57079 7.08801 9.18277V9.62155C7.08801 9.79244 7.16653 9.95179 7.30047 10.058C8.00714 10.61 8.24038 10.8063 11.3049 13.0302C11.6929 13.3119 12.4642 13.9955 13 13.9862Z" fill="white"/>
</svg>
