<svg width="26" height="26" viewBox="0 0 26 26" fill="none" xmlns="http://www.w3.org/2000/svg">
<circle cx="13" cy="12.5082" r="12.5" fill="#A8A8A8"/>
<path d="M13 12.5083C14.7765 12.5083 16.2163 11.0685 16.2163 9.29198C16.2163 7.51548 14.7765 6.07568 13 6.07568C11.2235 6.07568 9.78368 7.51548 9.78368 9.29198C9.78368 11.0685 11.2235 12.5083 13 12.5083ZM15.4072 13.3274L14.2061 18.1368L13.402 14.7195L14.2061 13.3123H11.7939L12.5979 14.7195L11.7939 18.1368L10.5928 13.3274C8.8012 13.4129 7.37146 14.8778 7.37146 16.6895V17.7348C7.37146 18.4006 7.9117 18.9409 8.57757 18.9409H17.4224C18.0883 18.9409 18.6285 18.4006 18.6285 17.7348V16.6895C18.6285 14.8778 17.1987 13.4129 15.4072 13.3274Z" fill="white"/>
</svg>
