<svg width="25" height="26" viewBox="0 0 25 26" fill="none" xmlns="http://www.w3.org/2000/svg">
<path d="M20.3125 3.63324H4.6875C4.2731 3.63324 3.87567 3.79786 3.58265 4.09089C3.28962 4.38391 3.125 4.78134 3.125 5.19574V20.8207C3.125 21.2351 3.28962 21.6326 3.58265 21.9256C3.87567 22.2186 4.2731 22.3832 4.6875 22.3832H20.3125C20.7269 22.3832 21.1243 22.2186 21.4174 21.9256C21.7104 21.6326 21.875 21.2351 21.875 20.8207V5.19574C21.875 4.78134 21.7104 4.38391 21.4174 4.09089C21.1243 3.79786 20.7269 3.63324 20.3125 3.63324ZM4.6875 20.8207V5.19574H20.3125V20.8207H4.6875Z" fill="#A8A8A8"/>
<path d="M10.9375 17.3051L7.03125 13.4301L8.27344 12.227L10.9375 14.8442L16.7266 9.10199L17.9688 10.3364L10.9375 17.3051Z" fill="#A8A8A8"/>
</svg>
